<svg width="210" height="44" viewBox="0 0 210 44" fill="none" xmlns="http://www.w3.org/2000/svg">
<g clip-path="url(#clip0_14_10)">
<g clip-path="url(#clip1_14_10)">
<g clip-path="url(#clip2_14_10)">
<g clip-path="url(#clip3_14_10)">
<g clip-path="url(#clip4_14_10)">
<g clip-path="url(#clip5_14_10)">
<g clip-path="url(#clip6_14_10)">
<path d="M67.1813 37.9171C62.0353 37.9171 57.9185 36.6073 54.8309 33.9875L56.3279 31.2059C57.9497 32.501 59.612 33.4283 61.3149 33.9875C63.0115 34.5468 64.9826 34.8264 67.2281 34.8264C69.8791 34.8264 71.9219 34.3407 73.3565 33.3694C74.7912 32.398 75.5085 31.0293 75.5085 29.2632C75.5085 28.2329 75.1654 27.394 74.4793 26.7465C73.7932 26.0989 72.8887 25.5838 71.7659 25.2011C70.6432 24.8184 69.1306 24.4211 67.2281 24.009C64.6707 23.4497 62.5748 22.861 60.9406 22.2429C59.3001 21.6247 57.9746 20.7417 56.9641 19.5937C55.9474 18.4457 55.439 16.9445 55.439 15.0901C55.439 13.324 55.9318 11.7551 56.9173 10.3834C57.8966 9.01761 59.3001 7.95794 61.1277 7.2044C62.9491 6.45674 65.0605 6.08292 67.462 6.08292C69.7387 6.08292 71.8689 6.42142 73.8524 7.09843C75.8297 7.77544 77.5045 8.74681 78.8768 10.0125L77.4266 12.7942C75.8672 11.5284 74.2859 10.6071 72.6829 10.0302C71.0736 9.45914 69.3333 9.17362 67.462 9.17362C64.9046 9.17362 62.9023 9.6799 61.4552 10.6925C60.0018 11.7109 59.2752 13.1327 59.2752 14.9576C59.2752 16.5177 59.9145 17.6951 61.1932 18.4899C62.4719 19.2846 64.4056 19.9616 66.9942 20.5209C69.8323 21.1685 72.0622 21.7631 73.684 22.3047C75.3058 22.8522 76.6562 23.6705 77.7353 24.7596C78.8082 25.8487 79.3446 27.3057 79.3446 29.1307C79.3446 30.8968 78.855 32.4422 77.8757 33.7668C76.8901 35.0913 75.4773 36.1127 73.6372 36.831C71.7971 37.5551 69.6452 37.9171 67.1813 37.9171ZM96.7007 37.5639H92.8178V9.52684H81.3562V6.43614H108.209V9.52684H96.7007V37.5639ZM124.583 37.9171C121.526 37.9171 118.866 37.2696 116.602 35.9744C114.344 34.6793 112.607 32.8396 111.39 30.4553C110.168 28.071 109.556 25.26 109.556 22.0221C109.556 18.7548 110.158 15.9202 111.362 13.5183C112.566 11.1222 114.297 9.28253 116.555 7.99915C118.819 6.72166 121.495 6.08292 124.583 6.08292C127.664 6.08292 130.337 6.72166 132.601 7.99915C134.859 9.28253 136.59 11.1222 137.794 13.5183C138.992 15.9202 139.59 18.7401 139.59 21.9779C139.59 25.2158 138.985 28.0328 137.775 30.4288C136.559 32.8307 134.819 34.6793 132.554 35.9744C130.296 37.2696 127.639 37.9171 124.583 37.9171ZM124.583 34.8264C128.076 34.8264 130.795 33.7138 132.742 31.4885C134.694 29.2691 135.67 26.0989 135.67 21.9779C135.67 17.857 134.703 14.6927 132.77 12.4851C130.836 10.2774 128.107 9.17362 124.583 9.17362C121.09 9.17362 118.367 10.2833 116.415 12.5027C114.469 14.728 113.495 17.8864 113.495 21.9779C113.495 26.0694 114.469 29.2337 116.415 31.4708C118.367 33.7079 121.09 34.8264 124.583 34.8264ZM166.724 27.4087L172.478 37.5639H168.268L162.654 27.5854C161.968 26.3785 161.166 25.5455 160.249 25.0863C159.326 24.633 158.069 24.4064 156.479 24.4064H150.303V37.5639H146.514V6.43614H160.081C163.668 6.43614 166.406 7.18674 168.296 8.68794C170.18 10.1891 171.121 12.3968 171.121 15.3109C171.121 17.7246 170.398 19.6761 168.951 21.1655C167.497 22.6491 165.43 23.5822 162.748 23.9648C163.59 24.2003 164.332 24.5977 164.974 25.157C165.611 25.7162 166.194 26.4668 166.724 27.4087ZM150.303 21.404H159.753C162.311 21.404 164.223 20.9036 165.489 19.9028C166.749 18.902 167.379 17.386 167.379 15.355C167.379 13.3534 166.755 11.8669 165.508 10.8956C164.26 9.92422 162.342 9.43853 159.753 9.43853H150.303V21.404ZM194.279 28.9983L206.629 6.43614H209.763V37.5639H206.255L206.302 13.4564L195.588 32.6188H192.875L182.115 13.6331L182.162 37.5639H178.607V6.43614H181.788L194.279 28.9983Z" fill="#1A1A1A"/>
</g>
</g>
</g>
</g>
<g clip-path="url(#clip7_14_10)">
<g clip-path="url(#clip8_14_10)">
<path d="M25.5582 34.2525C14.104 35.9326 3.15515 29.1695 0.232155 18.5557C2.90278 22.6026 6.92322 25.6688 11.6558 27.3074C11.1071 26.2292 10.7508 25.0953 10.5579 23.9185C8.76328 13.0949 15.9736 2.74717 27.1898 0.00259399C22.9165 2.52314 19.6527 6.33178 17.9321 10.7842C19.0745 10.2659 20.2759 9.91591 21.5372 9.73385C32.9913 8.0538 43.9397 14.8589 46.8632 25.4306C44.1926 21.4258 40.1567 18.3171 35.4396 16.6932C35.9733 17.7714 36.3446 18.9335 36.537 20.1099C38.3171 30.9193 31.1218 41.2392 19.9056 43.9975C24.1784 41.4769 27.4427 37.6966 29.1633 33.2295C28.0209 33.7342 26.819 34.07 25.5582 34.2525Z" fill="#605DEC"/>
</g>
</g>
</g>
</g>
</g>
<defs>
<clipPath id="clip0_14_10">
<rect width="210" height="44" fill="white"/>
</clipPath>
<clipPath id="clip1_14_10">
<rect width="209.536" height="43.9949" fill="white" transform="translate(0.232147 0.00259399)"/>
</clipPath>
<clipPath id="clip2_14_10">
<rect width="209.536" height="43.9949" fill="white" transform="translate(0.232147 0.00259399)"/>
</clipPath>
<clipPath id="clip3_14_10">
<rect width="154.942" height="31.8342" fill="white" transform="translate(54.826 6.08292)"/>
</clipPath>
<clipPath id="clip4_14_10">
<rect width="154.942" height="31.8342" fill="white" transform="translate(54.826 6.08292)"/>
</clipPath>
<clipPath id="clip5_14_10">
<rect width="154.942" height="31.8342" fill="white" transform="translate(54.826 6.08292)"/>
</clipPath>
<clipPath id="clip6_14_10">
<rect width="154.942" height="31.8342" fill="white" transform="translate(54.826 6.08292)"/>
</clipPath>
<clipPath id="clip7_14_10">
<rect width="46.6311" height="43.9949" fill="white" transform="translate(0.232147 0.00259399)"/>
</clipPath>
<clipPath id="clip8_14_10">
<rect width="46.6311" height="43.9949" fill="white" transform="translate(0.232147 0.00259399)"/>
</clipPath>
</defs>
</svg>
