<svg width="47" height="44" viewBox="0 0 47 44" fill="none" xmlns="http://www.w3.org/2000/svg">
<path d="M25.5582 34.2525C14.104 35.9326 3.15515 29.1695 0.232155 18.5557C2.90278 22.6026 6.92322 25.6688 11.6558 27.3074C11.1071 26.2292 10.7508 25.0953 10.5579 23.9185C8.76328 13.0949 15.9736 2.74717 27.1898 0.00259399C22.9165 2.52314 19.6527 6.33178 17.9321 10.7842C19.0745 10.2659 20.2759 9.91591 21.5372 9.73385C32.9913 8.0538 43.9397 14.8589 46.8632 25.4306C44.1926 21.4258 40.1567 18.3171 35.4396 16.6932C35.9733 17.7714 36.3446 18.9335 36.537 20.1099C38.3171 30.9193 31.1218 41.2392 19.9056 43.9975C24.1784 41.4769 27.4427 37.6966 29.1633 33.2295C28.0209 33.7342 26.819 34.07 25.5582 34.2525Z" fill="#605DEC"/>
</svg>
